<!DOCTYPE svg PUBLIC "-//W3C//DTD SVG 1.1//EN" "http://www.w3.org/Graphics/SVG/1.1/DTD/svg11.dtd">
<!-- Uploaded to: SVG Repo, www.svgrepo.com, Transformed by: SVG Repo Mixer Tools -->
<svg fill="#ffff00" height="800px" width="800px" version="1.1" id="Capa_1" xmlns="http://www.w3.org/2000/svg" xmlns:xlink="http://www.w3.org/1999/xlink" viewBox="0 0 297 297" xml:space="preserve" stroke="#ffff00">
<g id="SVGRepo_bgCarrier" stroke-width="0"/>
<g id="SVGRepo_tracerCarrier" stroke-linecap="round" stroke-linejoin="round"/>
<g id="SVGRepo_iconCarrier"> <g> <path d="M157.223,5.041C155.425,1.922,152.1,0,148.499,0c-3.601,0-6.926,1.922-8.724,5.041L96.626,79.939 c-1.794,3.115-1.792,6.951,0.007,10.063c1.8,3.113,5.121,5.029,8.717,5.029h86.301c0.006,0,0.012,0,0.02,0 c5.561,0,10.067-4.506,10.067-10.067c0-2.049-0.611-3.955-1.664-5.547L157.223,5.041z M122.768,74.898l25.731-44.664l25.732,44.664 H122.768z"/> <path d="M191.65,201.969H105.35c-3.596,0-6.917,1.916-8.717,5.029c-1.799,3.111-1.801,6.947-0.007,10.063l43.151,74.899 c1.798,3.119,5.123,5.041,8.724,5.041c3.601,0,6.926-1.922,8.724-5.041l43.149-74.899c1.794-3.115,1.792-6.951-0.007-10.063 C198.567,203.885,195.246,201.969,191.65,201.969z M148.501,266.766l-25.733-44.664h51.465L148.501,266.766z"/> <path d="M291.949,139.777l-74.893-43.154c-3.114-1.795-6.95-1.793-10.063,0.006c-3.112,1.801-5.029,5.121-5.029,8.717v86.307 c0,3.596,1.917,6.918,5.029,8.717c1.558,0.9,3.297,1.352,5.037,1.352c1.735,0,3.471-0.449,5.025-1.346l74.893-43.154 c3.119-1.797,5.041-5.121,5.041-8.721C296.99,144.898,295.068,141.574,291.949,139.777z M222.099,174.232v-51.467L266.76,148.5 L222.099,174.232z"/> <path d="M90.006,96.629c-3.113-1.799-6.948-1.801-10.064-0.006L5.05,139.779c-3.118,1.797-5.04,5.123-5.04,8.723 c0,3.6,1.922,6.926,5.041,8.723l74.893,43.152c1.555,0.895,3.29,1.344,5.025,1.344c1.739,0,3.479-0.451,5.037-1.352 c3.112-1.799,5.029-5.121,5.029-8.717v-86.307C95.035,101.75,93.118,98.43,90.006,96.629z M74.901,174.234L30.24,148.502 l44.661-25.736V174.234z"/> </g> </g>
</svg>